PathFileType	4	(X/Y/Z)	/Users/itak/Documents/Research/Walk-IL/dataset/trc/00438_00167.trc
DataRate	CameraRate	NumFrames	NumMarkers	Units	OrigDataRate	OrigDataStartFrame	OrigNumFrames
100.000000	100.000000	4	53	mm	100.000000	195	522
Frame#	Time	RPSI			LPSI			L3			STRN			T10			C7			CLAV			RBAK			LBAK			LSHO			LUPA			LAEL			LAOL			LWTS			LWPS			LFRA			LIFD			LHPS			LHTS			RSHO			RUPA			RAEL			RAOL			RWTS			RWPS			RFRA			RIFD			RHTS			RHPS			RBHD			LFHD			RFHD			LBHD			LHIP			RHIP			RASI			LASI			LKNE			LTHI			LANK			LTIP			LTOE			LMT1			LMT5			LHEE			RKNE			RTHI			RANK			RTIP			RTOE			RMT1			RMT5			RHEE			
		X1	Y1	Z1	X2	Y2	Z2	X3	Y3	Z3	X4	Y4	Z4	X5	Y5	Z5	X6	Y6	Z6	X7	Y7	Z7	X8	Y8	Z8	X9	Y9	Z9	X10	Y10	Z10	X11	Y11	Z11	X12	Y12	Z12	X13	Y13	Z13	X14	Y14	Z14	X15	Y15	Z15	X16	Y16	Z16	X17	Y17	Z17	X18	Y18	Z18	X19	Y19	Z19	X20	Y20	Z20	X21	Y21	Z21	X22	Y22	Z22	X23	Y23	Z23	X24	Y24	Z24	X25	Y25	Z25	X26	Y26	Z26	X27	Y27	Z27	X28	Y28	Z28	X29	Y29	Z29	X30	Y30	Z30	X31	Y31	Z31	X32	Y32	Z32	X33	Y33	Z33	X34	Y34	Z34	X35	Y35	Z35	X36	Y36	Z36	X37	Y37	Z37	X38	Y38	Z38	X39	Y39	Z39	X40	Y40	Z40	X41	Y41	Z41	X42	Y42	Z42	X43	Y43	Z43	X44	Y44	Z44	X45	Y45	Z45	X46	Y46	Z46	X47	Y47	Z47	X48	Y48	Z48	X49	Y49	Z49	X50	Y50	Z50	X51	Y51	Z51	X52	Y52	Z52	X53	Y53	Z53	

196	1.95	-1011.554809570312	931.2222290039062	-398.5198974609375	-942.8334350585938	936.739501953125	-522.5752563476562	-966.7225952148438	1038.968627929688	-450.7994384765625	-709.7915649414062	1213.630737304688	-313.5746154785156	-966.93798828125	1164.206176757812	-460.3219604492188	-897.5748901367188	1424.550903320312	-400.7769470214844	-734.7509765625	1330.466430664062	-326.7350158691406	-1005.644409179688	1309.912719726562	-359.396728515625	-877.2546997070312	1384.648803710938	-506.0355224609375	-745.44873046875	1399.081909179688	-520.7630004882812	-707.898193359375	1285.379638671875	-619.0574951171875	-684.2978515625	1066.6025390625	-646.6690063476562	-787.9876708984375	1060.576171875	-644.1622924804688	-663.0624389648438	858.1820678710938	-576.5935668945312	-667.5225830078125	845.9700317382812	-649.9165649414062	-668.8485107421875	977.4135131835938	-647.9736938476562	-670.7297973632812	689.6195678710938	-583.059814453125	-669.8385620117188	764.0220947265625	-647.9002685546875	-651.6602172851562	767.8914184570312	-578.7457885742188	-919.3778076171875	1384.620361328125	-228.6423645019531	-980.1666870117188	1325.55712890625	-178.8004302978516	-1053.126342773438	1045.06494140625	-155.6015472412109	-1078.422973632812	1040.1328125	-218.8811950683594	-986.4998779296875	824.8290405273438	-162.7067260742188	-1073.753173828125	825.6871948242188	-151.4528045654297	-1066.592651367188	987.3649291992188	-151.5249481201172	-1022.434509277344	669.77099609375	-176.8771362304688	-1002.009338378906	724.1458129882812	-157.6988677978516	-1076.174072265625	737.5362548828125	-155.9071502685547	-877.9205932617188	1606.454223632812	-284.1277465820312	-683.7781372070312	1638.731567382812	-348.5224914550781	-751.1112060546875	1634.627563476562	-236.4217529296875	-800.4097290039062	1616.137939453125	-444.3072204589844	-778.1832885742188	826.6914672851562	-568.3731689453125	-954.9293823242188	847.5408935546875	-205.8786010742188	-843.2632446289062	894.009521484375	-235.4005432128906	-718.3916015625	861.8021850585938	-455.5486145019531	-868.4279174804688	411.21240234375	-535.0454711914062	-806.5114135742188	557.9780883789062	-538.4563598632812	-1039.105834960938	33.88765716552734	-595.3947143554688	-915.3799438476562	262.8523254394531	-556.0804443359375	-893.7771606445312	43.56834030151367	-410.4179382324219	-970.8969116210938	50.43294906616211	-429.9715270996094	-907.9270629882812	44.79972839355469	-525.8251953125	-1112.639282226562	40.63286972045898	-585.9530029296875	-773.6506958007812	493.6199340820312	-138.247802734375	-870.7965698242188	738.3948974609375	-161.2190246582031	-730.1914672851562	58.04840850830078	-111.3511428833008	-758.7339477539062	348.6581420898438	-109.5462188720703	-531.4625854492188	112.9964065551758	-52.66829681396484	-566.154052734375	100.1020660400391	-115.4432373046875	-629.690673828125	82.32258605957031	-32.83049392700195	-764.8070678710938	43.52298355102539	-183.1023864746094	
197	1.96	-1006.372314453125	929.5455932617188	-394.343994140625	-937.8783569335938	935.282470703125	-518.5326538085938	-961.8568115234375	1037.167602539062	-446.6376647949219	-704.4486694335938	1211.439819335938	-309.8048095703125	-962.0459594726562	1162.448852539062	-456.0739135742188	-892.3159790039062	1422.6025390625	-396.1288146972656	-729.4319458007812	1328.308837890625	-322.6604919433594	-1000.423950195312	1307.870971679688	-354.7338256835938	-872.2459106445312	1382.954345703125	-501.5200500488281	-740.3970336914062	1397.30029296875	-516.5016479492188	-703.187255859375	1283.74609375	-615.1039428710938	-679.8209838867188	1064.997924804688	-643.3002319335938	-783.5026245117188	1059.10791015625	-640.6702880859375	-658.7964477539062	856.4083251953125	-573.73388671875	-663.3720703125	844.3731689453125	-647.0896606445312	-664.5079956054688	975.7747192382812	-644.8416748046875	-666.7584228515625	687.863037109375	-580.6315307617188	-665.769775390625	762.4198608398438	-645.24951171875	-647.5575561523438	766.1029663085938	-576.1243286132812	-913.8716430664062	1382.128295898438	-224.0126953125	-974.531982421875	1322.907470703125	-174.2238006591797	-1047.682373046875	1042.544555664062	-151.4439697265625	-1073.027099609375	1037.930541992188	-214.7317352294922	-982.3126220703125	821.90478515625	-159.3822784423828	-1069.561279296875	823.3001098632812	-147.9082946777344	-1061.442504882812	984.9276733398438	-147.5015716552734	-1019.360473632812	667.1609497070312	-173.9444580078125	-998.5075073242188	721.3125	-154.62841796875	-1072.587158203125	735.2002563476562	-152.6286163330078	-872.7506103515625	1604.16015625	-279.3526611328125	-678.7494506835938	1636.888305664062	-343.847412109375	-745.9579467773438	1632.579467773438	-231.7316741943359	-795.3119506835938	1614.109497070312	-439.6051635742188	-773.5658569335938	825.3746948242188	-565.030029296875	-949.5503540039062	845.3257446289062	-202.0807800292969	-837.6788330078125	891.7886352539062	-231.4761047363281	-713.4521484375	859.9471435546875	-452.2407836914062	-865.8536376953125	410.2886962890625	-533.368896484375	-803.1964111328125	556.8018188476562	-536.1642456054688	-1039.161376953125	34.20678329467773	-595.281982421875	-913.816650390625	262.3372497558594	-555.1707153320312	-893.6474609375	43.51322174072266	-410.45751953125	-970.722900390625	50.48399353027344	-430.0439453125	-907.754150390625	44.70282363891602	-525.9649658203125	-1112.587646484375	41.18801116943359	-585.88232421875	-769.2925415039062	490.3397827148438	-135.6881713867188	-865.92529296875	735.75244140625	-157.8801879882812	-713.1843872070312	56.87225723266602	-101.6792678833008	-750.5775756835938	346.6026306152344	-104.9649658203125	-515.7201538085938	118.5449676513672	-44.80977630615234	-550.4181518554688	103.6675643920898	-107.2307434082031	-613.0325317382812	85.42847442626953	-24.07257080078125	-747.6881103515625	40.14786911010742	-173.01953125	
198	1.97	-1001.089599609375	927.842529296875	-390.0365905761719	-932.7910766601562	933.8201904296875	-514.3643798828125	-956.8452758789062	1035.321533203125	-442.3180236816406	-698.9783935546875	1209.192016601562	-305.8900756835938	-957.0227661132812	1160.639770507812	-451.657958984375	-886.9356079101562	1420.601318359375	-391.3304138183594	-723.9807739257812	1326.094116210938	-318.4398193359375	-995.083251953125	1305.7666015625	-349.9213562011719	-867.1228637695312	1381.2109375	-496.8488159179688	-735.2322387695312	1395.472534179688	-512.0968627929688	-698.38232421875	1282.053344726562	-611.0049438476562	-675.2410888671875	1063.337280273438	-639.7674560546875	-778.9281005859375	1057.589111328125	-636.9949951171875	-654.4429321289062	854.5621948242188	-570.7682495117188	-659.1431884765625	842.730712890625	-644.156982421875	-660.0740966796875	974.0865478515625	-641.570556640625	-662.7032470703125	686.051025390625	-578.1583862304688	-661.627685546875	760.7789306640625	-642.533447265625	-643.3935546875	764.2301635742188	-573.4384765625	-908.2416381835938	1379.575439453125	-219.2366180419922	-968.768310546875	1320.187866210938	-169.5049438476562	-1042.03857421875	1039.938720703125	-147.0969696044922	-1067.446655273438	1035.618408203125	-210.3731384277344	-977.8196411132812	818.9471435546875	-155.8424682617188	-1065.05419921875	820.8304443359375	-144.12744140625	-1056.05859375	982.3997802734375	-143.2783508300781	-1015.884521484375	664.4932861328125	-170.7386016845703	-994.630859375	718.4434814453125	-151.3026428222656	-1068.6376953125	732.777587890625	-149.0796203613281	-867.4918212890625	1601.824340820312	-274.4359436035156	-673.6170654296875	1635.005737304688	-339.00390625	-740.705322265625	1630.475708007812	-226.8777618408203	-790.1151733398438	1612.053588867188	-434.745361328125	-768.8257446289062	824.0349731445312	-561.5546875	-944.0918579101562	843.0361328125	-198.1670684814453	-832.0091552734375	889.4465942382812	-227.4323883056641	-708.40283203125	858.0208740234375	-448.8091125488281	-863.2525634765625	409.3805847167969	-531.6832885742188	-799.8411254882812	555.605224609375	-533.849853515625	-1039.208740234375	34.56316757202148	-595.167236328125	-912.2377319335938	261.8491821289062	-554.2613525390625	-893.5330810546875	43.46186828613281	-410.4887390136719	-970.5558471679688	50.53778839111328	-430.1159057617188	-907.591064453125	44.61235809326172	-526.1052856445312	-1112.542724609375	41.83555221557617	-585.795166015625	-764.706787109375	487.1322631835938	-132.9512176513672	-861.0045776367188	733.0401000976562	-154.3743896484375	-696.8336791992188	56.06553268432617	-92.57135009765625	-742.516845703125	344.6927490234375	-100.456787109375	-500.7464294433594	123.9551239013672	-37.37588119506836	-535.4047241210938	107.2481842041016	-99.44789123535156	-597.1729736328125	88.60744476318359	-15.796555519104	-731.1942749023438	37.33865356445312	-163.4638671875	
199	1.98	-995.7044067382812	926.1239013671875	-385.606689453125	-927.5682373046875	932.357666015625	-510.0697021484375	-951.6788940429688	1033.445068359375	-437.8448181152344	-693.378173828125	1206.901000976562	-301.8203735351562	-951.8682250976562	1158.793579101562	-447.0758666992188	-881.4321899414062	1418.560791015625	-386.3736267089844	-718.3936767578125	1323.836303710938	-314.0645446777344	-989.6134033203125	1303.61572265625	-344.9575805664062	-861.8800659179688	1379.42919921875	-492.0170593261719	-729.9609985351562	1393.614135742188	-507.5404663085938	-693.4793090820312	1280.317626953125	-606.7543334960938	-670.5643920898438	1061.641235351562	-636.067138671875	-774.2694091796875	1056.035888671875	-633.1255493164062	-650.000732421875	852.6573486328125	-567.6965942382812	-654.8353881835938	841.0595092773438	-641.1150512695312	-655.5487060546875	972.3698120117188	-638.1599731445312	-658.557373046875	684.1984252929688	-575.6327514648438	-657.4135131835938	759.12109375	-639.75146484375	-639.1616821289062	762.2855224609375	-570.686279296875	-902.4791259765625	1376.98095703125	-214.3096771240234	-962.866455078125	1317.419921875	-164.6355743408203	-1036.180541992188	1037.266967773438	-142.5556182861328	-1061.675659179688	1033.215087890625	-205.7965850830078	-973.011474609375	815.9737548828125	-152.0771179199219	-1060.219360351562	818.2933349609375	-140.1038970947266	-1050.428955078125	979.7988891601562	-138.8494873046875	-1011.992492675781	661.781005859375	-167.2669677734375	-990.3658447265625	715.5529174804688	-147.7254486083984	-1064.308715820312	730.280029296875	-145.2674255371094	-862.1436767578125	1599.461791992188	-269.3786926269531	-668.3779907226562	1633.096069335938	-333.9920349121094	-735.3574829101562	1628.329833984375	-221.8574523925781	-784.8234252929688	1609.982421875	-429.7254943847656	-763.9476318359375	822.6708374023438	-557.936767578125	-938.5532836914062	840.6910400390625	-194.1392059326172	-826.254638671875	887.0089721679688	-223.2803802490234	-703.2449951171875	856.0353393554688	-445.2480163574219	-860.6192626953125	408.4984741210938	-529.9832153320312	-796.4375	554.400634765625	-531.5020141601562	-1039.239013671875	34.95510482788086	-595.0514526367188	-910.6604614257812	261.3914489746094	-553.3413696289062	-893.4332885742188	43.413818359375	-410.5098266601562	-970.3964233398438	50.59748840332031	-430.1840209960938	-907.4411010742188	44.52777862548828	-526.2423706054688	-1112.505981445312	42.5872802734375	-585.6970825195312	-759.8621826171875	484.0224914550781	-130.0314178466797	-856.0167236328125	730.282958984375	-150.6929779052734	-681.2593994140625	55.50756072998047	-84.07627868652344	-734.5795288085938	342.9076538085938	-96.03030395507812	-486.609619140625	129.0461730957031	-30.37117958068848	-521.184326171875	110.6901092529297	-92.10829162597656	-582.1988525390625	91.67481231689453	-8.029377937316895	-715.4403686523438	35.00108337402344	-154.5195922851562	
